<svg xmlns="http://www.w3.org/2000/svg" viewBox="0 0 551 900" fill-rule="evenodd" shape-rendering="geometricPrecision"><g transform="translate(551 0) scale(-1 1)"><path fill="#931c1d" d="M295 441 292 446 289 447 292 447 299 454 300 451ZM281 411 278 418 285 435 287 434 289 426 284 412ZM273 370 272 373 268 374 270 375 270 378 267 381 273 401 276 400 276 393 278 392ZM256 364 252 369 249 368 249 373 247 375 251 386 256 393 256 396 258 397 258 401 264 410 262 391 260 395 257 394 260 366 259 364ZM267 357 264 357 264 360 260 362 262 362 263 365 269 361ZM255 304 255 330 257 331 257 340 258 336 263 336 265 333 263 314 261 316 258 316 255 313ZM260 279 256 299 256 295 259 294 263 289 263 284ZM256 274 253 274 245 285 249 285 251 295 251 290ZM331 190 332 197 538 389 542 392 545 389 542 384 525 368 523 364 520 364 513 355 511 355 504 349 501 344 494 340 490 336 490 334 486 332 475 320 473 320 466 314 461 307 457 306 447 294 445 294 436 286 433 281 426 277 424 273 413 265 408 258 403 256 396 247 389 243 386 238 381 236 374 227 368 224 365 219 363 219 353 208 350 208 343 199 341 199 334 193 332 189ZM328 176 319 179 315 183 312 190 315 192 322 183 328 181ZM325 168 320 167 310 173 305 185 308 187 316 176 325 172ZM288 165 281 175 278 175 279 178 282 178 285 182 287 188 286 193 288 196 288 213 284 235 273 271 269 271 271 263 263 273 269 276 270 297 272 300 275 300 279 294 281 261 286 235 291 219 297 208 296 203 288 197 288 194 291 193 293 189 289 180 285 177 285 175 288 173 288 170 292 170 288 168ZM317 158 312 159 304 165 306 172 307 169 318 163ZM308 150 300 157 298 157 294 163 296 163 298 166 298 164 309 155ZM113 90 99 96 102 97 100 113 101 128 99 129 99 135 97 137 108 149 115 164 126 197 126 208 109 253 106 269 102 271 102 273 104 274 104 279 101 280 103 288 99 290 96 285 96 287 93 288 92 284 95 283 94 281 90 282 91 310 94 300 97 300 98 304 99 301 101 301 103 304 105 298 109 298 109 305 107 306 108 310 106 311 107 318 102 319 102 333 98 335 105 350 114 361 117 360 121 341 125 341 123 352 123 377 133 415 135 414 146 391 153 369 158 345 161 346 161 353 154 388 148 405 139 423 134 439 133 455 136 478 132 491 152 467 154 467 155 470 147 481 124 522 114 544 106 567 111 571 112 576 111 592 113 599 113 622 111 624 113 629 117 633 116 639 113 638 113 633 113 636 111 637 111 640 113 642 111 667 113 668 113 697 112 703 109 705 118 751 128 789 143 831 164 871 167 868 177 869 162 848 146 818 136 794 124 753 118 717 117 691 113 680 114 677 117 678 118 665 121 666 126 706 135 742 148 778 163 809 186 846 215 883 219 883 220 885 225 884 226 886 228 884 243 884 242 879 245 875 248 875 251 872 249 870 246 871 243 868 242 854 244 853 242 852 242 849 244 848 241 846 241 843 226 819 199 762 190 737 182 707 176 669 176 633 178 617 189 571 192 570 195 657 199 682 205 703 217 728 240 763 261 791 267 796 267 798 268 796 270 796 271 798 270 771 269 774 266 773 267 770 263 771 263 764 261 763 262 760 264 760 265 763 261 750 261 741 263 740 261 739 260 732 263 730 256 726 256 723 259 722 257 722 256 719 261 719 259 717 260 709 256 706 256 704 258 703 248 670 240 624 237 573 239 521 232 530 221 555 215 582 214 601 211 602 209 597 209 560 214 536 227 493 230 461 227 436 223 423 220 433 209 452 198 465 195 467 192 466 202 441 206 419 206 387 201 357 200 372 192 404 178 432 175 431 175 426 181 401 186 353 186 307 184 282 188 282 200 309 213 325 213 315 215 307 217 304 220 305 223 338 229 358 236 370 234 345 232 343 234 335 237 336 243 362 246 362 247 364 248 362 250 362 250 350 254 350 256 353 256 345 254 345 252 341 251 328 249 326 248 330 242 328 242 316 248 311 250 298 249 301 246 300 243 290 242 296 238 296 240 284 238 285 238 290 233 290 233 275 235 272 238 272 244 264 242 260 243 256 234 255 228 257 217 267 215 267 215 260 220 251 224 249 227 239 223 232 213 222 203 216 194 214 175 215 161 221 154 226 139 245 126 273 122 273 129 246 143 216 149 207 157 199 172 189 177 182 177 175 174 168 158 147 146 123 137 109 140 108 153 119 159 122 168 123 187 119 185 117 181 118 180 116 158 108 157 106 130 92ZM173 41 179 49 260 131 285 154 294 156 290 150 282 145 276 137 274 137 265 129 181 41ZM396 26 359 21 329 21 312 23 282 29 251 39 230 48 220 54 219 57 223 57 227 62 230 63 238 56 244 55 250 52 252 49 257 49 261 45 264 46 266 43 269 44 274 40 277 41 286 36 290 37 293 34 297 35 298 33 301 34 302 32 305 33 306 31 310 32 311 30 315 31 316 29 321 30 322 28 325 28 326 24 335 27 345 27 346 25 355 24 387 25 388 27Z"/><path fill="#31060c" d="M79 693 80 783 78 805 71 841 65 857 59 866 71 863 72 861 75 862 76 860 92 861 93 856 94 793 92 764 86 722ZM191 570 184 595 179 622 177 647 178 672 182 699 189 728 197 752 212 788 228 819 251 856 254 853 274 855 275 857 282 858 294 865 322 874 326 873 327 875 335 875 302 842 265 799 227 747 206 710 199 690 193 655ZM186 282 188 312 187 365 183 400 176 433 189 407 197 378 199 357 202 356 208 387 208 418 204 441 197 459 191 469 201 460 209 449 217 435 222 422 226 423 232 460 229 493 224 513 217 532 211 559 210 585 212 602 213 582 220 552 230 530 237 520 240 519 240 603 247 655 254 685 262 710 271 733 290 770 321 814 354 848 357 849 357 851 357 848 360 845 371 844 381 848 385 847 388 850 395 851 400 855 403 855 415 862 424 865 443 867 413 850 383 828 348 795 319 759 293 714 280 681 274 660 275 656 278 657 298 696 325 734 372 783 396 803 409 812 415 811 416 813 419 813 420 811 422 811 424 813 430 813 431 811 437 812 438 810 442 811 452 808 453 806 462 803 471 796 468 793 452 793 451 791 442 787 440 784 432 782 431 780 428 781 427 779 423 779 417 776 409 769 407 765 401 761 402 758 408 760 423 759 443 747 442 744 434 742 431 743 430 741 411 736 408 733 400 731 396 727 388 724 387 722 376 716 374 713 372 713 370 710 368 710 342 684 342 682 338 679 338 677 328 664 323 653 321 652 308 621 300 595 297 577 295 576 296 572 292 546 290 542 291 536 289 532 289 502 287 498 288 466 286 453 284 452 285 449 283 448 284 445 282 444 282 441 285 440 278 424 263 374 263 386 267 410 266 413 264 413 260 408 248 384 239 357 235 338 238 364 237 371 232 368 227 358 220 333 218 305 215 314 215 325 212 326 197 307ZM107 164 104 158 103 160 90 159 81 164 75 174 62 167 56 166 50 169 48 174 44 176 44 178 48 180 49 185 54 190 64 190 71 186 74 181 77 181 83 185 93 185 101 179 104 172 104 165ZM282 177 288 177 294 186 293 193 290 195 287 194 298 203 298 211 292 221 288 234 283 262 280 297 274 302 269 299 268 276 265 290 265 306 274 315 278 317 284 316 289 312 294 297 299 297 304 319 308 350 305 351 301 344 301 371 296 412 292 410 287 402 276 377 283 404 294 436 305 457 317 473 319 473 320 475 321 474 315 453 313 452 314 447 312 446 315 407 313 406 314 402 312 401 313 397 310 387 311 378 314 377 325 389 327 388 319 367 318 359 316 358 317 354 315 353 316 349 314 347 315 343 309 305 301 283 298 280 298 273 300 272 303 244 302 236 305 220 307 215 311 212 310 206 316 203 321 198 324 198 329 204 339 211 358 231 374 244 390 261 392 261 405 275 480 343 536 397 541 397 542 394 334 202 329 194 329 190 334 178 329 174 328 167 322 164 320 157 316 156 320 160 319 165 310 170 305 170 303 164 313 157 312 153 310 151 307 151 310 153 310 156 298 165 306 170 307 173 304 175 296 174 290 168 290 173 287 176ZM118 147 127 162 138 186 138 199 125 233 125 239 144 201 145 186 135 166 126 154ZM135 107 143 116 161 149 177 170 179 181 173 190 157 201 150 208 143 219 132 242 123 276 138 244 153 225 172 214 181 212 193 212 203 214 212 219 222 228 231 242 231 246 227 248 218 258 215 267 222 259 230 254 241 253 250 258 250 260 238 275 235 287 245 269 263 260 253 256 238 241 225 221 215 210 197 203 189 202 189 199 195 191 194 179 189 171 175 158 175 156 160 137 160 134 178 130 179 128 186 125 190 119 188 121 175 124 160 124 155 122ZM170 46 172 51 234 112 234 114 266 146 268 146 283 162 295 163 294 159 296 157 289 158 279 151 176 48 173 43ZM415 30 401 24 373 16 369 17 362 14 357 15 356 13 349 14 347 12 339 13 334 11 311 11 306 13 297 12 295 14 288 13 276 15 275 17 271 16 270 18 266 17 254 20 250 23 247 22 215 33 187 46 201 60 210 55 217 55 223 50 246 39 275 29 301 23 332 19 373 20 401 25Z"/><path fill="#c3463e" d="M196 221 185 221 180 223 170 233 166 247 168 272 169 254 176 235 186 225ZM276 156 281 162 281 168 278 176 283 190 283 223 273 256 269 259 258 257 262 258 263 261 252 267 244 275 239 292 239 308 239 301 244 285 248 278 253 273 255 273 256 277 252 290 250 306 251 327 255 350 254 304 256 289 259 279 267 266 270 267 269 282 273 265 281 243 287 213 286 200 288 197 286 195 284 182 280 175 288 164 291 165 291 168 294 171 305 173 302 169 293 163 284 164ZM109 86 88 92 69 101 48 108 41 113 38 119 36 131 36 183 38 207 42 227 55 248 74 268 81 278 83 287 83 299 91 331 98 349 123 399 129 423 129 443 133 460 134 477 131 488 115 519 71 593 60 616 53 649 48 710 40 764 33 793 24 820 14 842 3 859 4 861 15 867 28 870 43 870 62 866 60 865 60 862 70 838 77 797 78 715 75 686 78 685 86 713 93 757 96 797 96 838 93 863 78 862 69 864 81 862 96 863 110 868 120 875 139 884 155 888 170 889 170 885 164 876 167 869 162 869 146 840 136 816 122 771 111 722 112 694 117 693 119 711 117 712 119 713 123 743 129 769 137 794 155 834 175 865 174 869 185 872 203 881 219 885 216 885 185 846 170 823 151 787 141 763 129 724 122 689 119 659 117 663 112 662 112 659 116 658 112 657 112 647 119 644 112 643 112 640 116 639 117 637 116 623 119 622 117 622 116 619 112 618 112 616 116 612 116 603 116 608 112 608 112 596 116 595 111 592 112 588 110 584 111 576 109 565 111 556 110 552 113 545 116 544 116 537 132 505 146 481 163 458 146 474 136 487 133 486 135 478 132 455 133 439 138 423 149 400 155 381 160 353 162 323 158 351 152 376 145 396 136 414 133 415 127 399 122 377 122 352 125 333 117 360 111 358 110 352 109 354 106 353 99 340 101 334 105 329 104 326 107 325 107 309 108 305 110 304 108 303 108 292 107 296 104 295 104 292 104 295 102 297 97 297 95 290 102 288 102 280 108 253 125 208 125 197 123 189 110 157 110 152 107 146 105 146 99 140 99 136 101 135 99 134 99 132 101 131 101 94 113 89 130 91 167 111 189 118 183 115 172 113 127 89 116 86ZM207 67 275 136 297 156 299 156 305 150 310 150 314 156 318 155 308 149 299 155 295 154 275 136ZM298 35 324 31 327 29 377 27 412 32 415 31 414 28 406 24 403 24 409 26 409 30 387 27 335 28 323 23 326 26 325 30Z"/><path fill="#5c0d14" d="M222 809 240 840 239 845 243 848 242 859 246 875 242 879 242 885 216 884 228 886 270 884 270 882 253 865 250 855 234 831ZM273 649 276 664 286 695 305 735 332 775 364 810 383 827 407 845 444 867 461 865 486 857 487 855 469 850 439 836 437 833 433 832 416 820 415 817 412 816 412 814 396 804 372 784 338 750 313 720 293 689ZM216 572 214 588 211 589 210 586 210 597 212 605ZM239 519 226 540 219 561 227 538 235 524 238 523 238 577 240 615 246 656 256 697 253 708 255 729 253 738 255 739 254 742 259 745 259 747 257 748 259 749 259 752 255 753 254 751 254 767 262 769 264 783 266 784 266 786 272 788 270 797 264 795 264 793 268 791 261 791 257 787 220 734 244 770 275 810 303 842 336 875 353 875 375 869 375 866 370 865 358 855 356 849 354 849 325 820 309 800 285 763 264 718 253 685 242 631 239 603ZM223 420 218 435 210 449 198 464 195 463 196 458 190 469 191 470 202 460 215 441 221 426 224 425 226 427 229 442 231 468 228 493 218 528 228 493 231 470 229 441ZM269 266 269 271 265 271 260 282 264 284 263 290 257 294 256 300 257 349 254 350 253 346 247 362 242 361 237 345 237 339 240 333 239 330 243 329 244 332 250 330 249 298 251 290 248 287 248 281 244 289 242 297 244 297 249 302 249 310 246 311 245 308 245 314 241 317 238 317 241 318 243 325 239 326 238 322 238 331 233 331 234 337 232 338 232 342 235 345 236 362 236 354 239 353 252 391 265 413 266 410 262 380 266 380 269 394 285 439 283 440 284 444 287 444 314 471 315 470 301 452 291 431 280 397 270 356 264 319 264 290 266 279 269 273ZM401 262 532 385 543 394 545 393 546 388 543 383 479 324 543 384 544 388 538 390ZM217 259 213 270 226 257 234 254 241 255 241 258 244 261 244 265 238 273 235 273 233 275 234 290 237 290 238 292 240 280 242 277 239 281 237 281 236 278 249 258 241 254 234 254 226 257 219 263 216 262ZM128 235 125 236 124 234 119 253ZM195 214 203 215 209 218 224 232 227 239 227 244 218 257 227 247 231 245 229 240 221 228 212 220 203 215ZM330 190 330 194 331 191 336 193 477 323 335 192 331 189ZM53 171 51 176 51 182 56 187 66 186 69 182 68 175 63 171ZM98 163 89 163 82 168 79 176 83 181 91 182 98 178 100 174 100 166ZM172 42 179 50 178 53 181 52 199 70 199 72 201 72 204 77 206 77 262 134 285 155 295 158 295 160 292 162 298 164 308 174 307 177 305 177 304 174 300 174 300 176 298 177 298 180 300 182 304 181 305 186 311 187 312 192 314 193 316 192 313 192 312 188 314 183 319 178 328 175 330 177 330 180 325 183 330 180 330 174 326 172 326 169 329 168 327 168 326 165 321 165 322 159 320 159 319 156 313 156 313 158 318 158 319 163 310 169 306 169 304 167 304 164 311 159 309 158 310 154 307 150 299 157 297 157 281 143 202 63 202 60 200 60 188 48 188 45 185 46 179 40ZM411 29 399 23 398 26 382 23 381 26 345 26 400 26 401 28ZM329 24 328 21 320 21 324 22 323 29 296 34 268 43 230 62 220 56 223 51 229 48 216 56 223 58 229 63 244 54 269 43 305 32 327 29 324 24Z"/><path fill="#000000" d="M297 296 290 313 285 317 276 318 266 308 268 337 275 369 284 393 296 413 295 400 299 376 301 345 304 346 307 353 301 311ZM108 168 104 182 97 188 83 189 76 187 70 192 63 194 54 194 46 188 48 220 52 231 86 267 99 287 104 250 118 209 118 197ZM45 123 43 136 44 170 53 163 61 163 73 167 88 155 100 155 99 151 90 142 63 125 50 120Z"/><path fill="#230003" d="M109 169 100 152 100 157 87 158 83 160 74 170 70 170 61 165 55 165 44 171 45 189 46 187 49 187 52 191 62 192 68 190 75 184 85 187 91 187 97 185 103 179 105 170Z"/><path fill="#00000a" d="M108 170 107 167 104 179 97 186 91 188 85 188 75 185 66 192 55 193 47 187 54 193 54 195 55 193 66 193 75 187 89 189 94 188 103 182ZM101 156 97 154 88 156 73 168 70 168 64 164 56 164 54 161 54 163 45 168 45 170 55 164 61 164 73 170 83 159 91 156Z"/></g></svg>